# This file uses centimeters as units for non-parametric coordinates.

mtllib mikeyheadphonestand.mtl
g default
v -0.361254 0.500957 -0.260314
v -0.361254 0.537199 -0.125060
v -0.361254 0.710543 -0.171508
v -0.361254 0.674302 -0.306762
v 0.489745 -1.348904 0.118747
v 0.489745 -1.228953 0.118747
v 0.929549 -1.228953 0.953268
v 0.929549 -1.348905 0.953268
v 0.361254 0.674302 -0.306762
v 0.361254 0.500957 -0.260314
v 0.745091 -1.228953 0.953268
v 0.745091 -1.348905 0.953268
v -0.361254 1.362934 -0.346315
v -0.361254 1.326693 -0.481569
v 0.361254 1.326693 -0.481569
v -0.361254 0.759776 0.705612
v -0.361254 0.933121 0.659164
v 0.361254 0.710543 -0.171508
v 0.361254 0.537199 -0.125060
v 0.361254 1.362934 -0.346316
v 0.361254 0.759776 0.705612
v 0.361254 0.933121 0.659164
v 0.361254 -1.228953 -0.125061
v 0.361254 -1.231208 -0.260314
v 0.199347 -1.348904 0.311852
v 0.199347 -1.228953 0.311852
v -0.361254 -1.228953 -0.125061
v -0.361254 -1.231208 -0.260314
v 0.361254 -1.348904 -0.125061
v -0.199347 -1.228953 0.311852
v -0.745091 -1.228953 0.953268
v -0.745091 -1.348905 0.953268
v -0.199347 -1.348904 0.311852
v -0.929549 -1.228953 0.953268
v -0.929549 -1.348905 0.953268
v 0.361254 -1.348905 -0.260315
v -0.489745 -1.228953 0.118747
v -0.361254 -1.348904 -0.125061
v -0.489745 -1.348904 0.118747
v -0.361254 -1.348905 -0.260315
vt 0.125000 0.000000
vt 0.160006 0.000000
vt 0.160006 0.250000
vt 0.125000 0.250000
vt 0.000000 1.000000
vt 0.000000 0.894231
vt 0.000000 0.894231
vt 0.000000 1.000000
vt 0.625000 0.500000
vt 0.625000 0.750000
vt 0.375000 0.750000
vt 0.375000 0.500000
vt 0.289043 0.894231
vt 0.289043 1.000000
vt 0.375000 0.464994
vt 0.375000 0.464994
vt 0.375000 0.500000
vt 0.625000 0.500000
vt 0.375000 0.000000
vt 0.375000 0.250000
vt 0.839994 0.250000
vt 0.839994 0.000000
vt 0.875000 0.000000
vt 0.875000 0.250000
vt 0.625000 0.464994
vt 0.625000 0.464994
vt 0.625000 0.000000
vt 0.375000 0.785006
vt 0.625000 0.250000
vt 0.000000 0.000000
vt 1.000000 0.000000
vt 1.000000 0.894231
vt 0.000000 0.894231
vt 0.875000 0.076377
vt 0.714646 0.076377
vt 0.714646 0.127360
vt 0.875000 0.127360
vt 0.000000 0.000000
vt 1.000000 0.000000
vt 1.000000 0.894231
vt 0.000000 0.894231
vt 0.000000 0.000000
vt 1.000000 0.000000
vt 1.000000 0.894231
vt 0.000000 0.894231
vt 0.000000 1.000000
vt 0.000000 0.000000
vt 1.000000 0.000000
vt 1.000000 0.894231
vt 0.000000 0.894231
vt 0.125000 0.127360
vt 0.285354 0.127360
vt 0.285354 0.076377
vt 0.125000 0.076377
vt 0.625000 0.622640
vt 0.375000 0.622640
vt 0.375000 0.673623
vt 0.625000 0.673623
vt 0.710957 0.894231
vt 1.000000 0.894231
vt 1.000000 1.000000
vt 0.710957 1.000000
vt 1.000000 1.000000
vt 0.000000 1.000000
vt 1.000000 0.894231
vt 1.000000 1.000000
vt 1.000000 1.000000
vt 1.000000 1.000000
vt 0.000000 1.000000
vt 0.000000 1.000000
vt 1.000000 1.000000
vt 0.673101 0.894231
vt 0.326899 0.894231
vt 0.326899 1.000000
vt 0.673101 1.000000
vn -1.000000 0.000000 0.000000
vn -1.000000 0.000000 0.000000
vn -1.000000 0.000000 0.000000
vn -1.000000 0.000000 0.000000
vn 0.884663 0.000000 -0.466231
vn 0.884663 0.000000 -0.466231
vn 0.884663 0.000001 -0.466231
vn 0.884663 0.000001 -0.466231
vn -0.000000 -0.258819 -0.965926
vn 0.000000 -0.258819 -0.965926
vn 0.000000 -0.258819 -0.965926
vn -0.000000 -0.258819 -0.965926
vn 0.000000 0.000000 1.000000
vn 0.000000 0.000000 1.000000
vn 0.000000 0.000000 1.000000
vn 0.000000 0.000000 1.000000
vn -1.000000 0.000000 0.000000
vn -1.000000 0.000000 0.000000
vn -0.000000 -0.258819 -0.965926
vn -0.000000 -0.258819 -0.965926
vn -1.000000 0.000000 0.000000
vn -1.000000 0.000000 0.000000
vn 1.000000 0.000000 0.000000
vn 1.000000 0.000000 0.000000
vn 1.000000 0.000000 0.000000
vn 1.000000 -0.000000 0.000000
vn 0.000000 0.258819 0.965926
vn 0.000000 0.258819 0.965926
vn 0.000000 0.258819 0.965926
vn 0.000000 0.258819 0.965926
vn -0.000000 0.965925 -0.258823
vn -0.000000 0.965925 -0.258823
vn -0.000000 0.965925 -0.258823
vn -0.000000 0.965925 -0.258823
vn 0.000000 -0.965926 0.258819
vn 0.000000 -0.965926 0.258819
vn 0.000000 -0.965926 0.258819
vn 0.000000 -0.965926 0.258819
vn 1.000000 -0.000000 0.000000
vn 1.000000 -0.000000 0.000000
vn 0.000000 0.965926 -0.258820
vn 0.000000 0.965926 -0.258820
vn 0.000000 0.965926 -0.258820
vn 0.000000 0.965926 -0.258820
vn 1.000000 0.000000 0.000000
vn 1.000000 0.000000 0.000000
vn 0.000000 0.258819 0.965926
vn 0.000000 0.258819 0.965926
vn 0.000000 0.258819 0.965926
vn 0.000000 0.258819 0.965926
vn 1.000000 -0.000000 0.000000
vn 1.000000 -0.000000 0.000000
vn 1.000000 -0.000000 0.000000
vn 1.000000 -0.000000 0.000000
vn -0.761622 0.000000 0.648021
vn -0.761622 0.000000 0.648021
vn -0.761622 0.000000 0.648021
vn -0.761622 0.000000 0.648021
vn 0.000000 -0.000000 1.000000
vn 0.000000 -0.000000 1.000000
vn 0.000000 -0.000000 1.000000
vn 0.000000 -0.000000 1.000000
vn 0.000000 0.000000 -1.000000
vn 0.000000 0.000000 -1.000000
vn 0.000000 0.000000 -1.000000
vn 0.000000 0.000000 -1.000000
vn 0.884663 0.000000 -0.466231
vn 0.884663 0.000000 -0.466231
vn -1.000000 -0.000000 0.000000
vn -1.000000 -0.000000 0.000000
vn -1.000000 -0.000000 0.000000
vn -1.000000 -0.000000 0.000000
vn 0.761622 0.000000 0.648021
vn 0.761622 0.000000 0.648021
vn 0.761622 0.000000 0.648021
vn 0.761622 0.000000 0.648021
vn 0.000000 0.000000 1.000000
vn 0.000000 0.000000 1.000000
vn 0.000000 0.000000 1.000000
vn 0.000000 0.000000 1.000000
vn 0.000000 0.000000 1.000000
vn 0.000000 0.000000 1.000000
vn 0.000000 0.000000 1.000000
vn 0.000000 0.000000 1.000000
vn 1.000000 0.000000 0.000000
vn 1.000000 0.000000 0.000000
vn 0.000000 1.000000 -0.000000
vn 0.000000 1.000000 -0.000000
vn -0.000000 1.000000 0.000000
vn 0.000000 1.000000 0.000000
vn 0.000000 -1.000000 0.000001
vn 0.000000 -1.000000 0.000001
vn 0.000000 -1.000000 -0.000000
vn 0.000000 -1.000000 -0.000000
vn -0.884663 0.000000 -0.466231
vn -0.884663 0.000000 -0.466231
vn -0.884663 0.000001 -0.466231
vn -0.884663 0.000001 -0.466231
vn 0.000000 0.000001 -1.000000
vn 0.000000 0.000001 -1.000000
vn 0.000000 -1.000000 0.000002
vn 0.000000 -1.000000 0.000002
vn 0.000000 -1.000000 0.000002
vn 0.000000 -1.000000 0.000002
vn -0.884663 0.000000 -0.466231
vn -0.884663 0.000000 -0.466231
vn -1.000000 0.000000 0.000000
vn -1.000000 0.000000 0.000000
vn -0.000000 1.000000 0.000000
vn -0.000000 1.000000 0.000000
vn -0.000000 1.000000 0.000000
vn 0.000000 -1.000000 -0.000000
vn 0.000000 -1.000000 -0.000000
vn 0.000000 -1.000000 -0.000000
vn 0.000000 -1.000000 -0.000000
vn 0.000000 -1.000000 -0.000000
vn 0.000000 -1.000000 -0.000000
vn 0.000000 1.000000 0.000000
vn 0.000000 1.000000 0.000000
vn 0.000000 1.000000 0.000000
s 1
g stand
usemtl initialShadingGroup
f 1/1/1 2/2/2 3/3/3 4/4/4
s 2
f 5/5/5 6/6/6 7/7/7 8/8/8
s 3
f 9/9/9 10/10/10 1/11/11 4/12/12
s off
f 7/7/13 11/13/14 12/14/15 8/8/16
s 1
f 4/12/4 3/15/3 13/16/17 14/17/18
s 3
f 15/18/19 9/9/9 4/12/12 14/17/20
s 1
f 3/3/3 2/2/2 16/19/21 17/20/22
s 4
f 18/21/23 19/22/24 10/23/25 9/24/26
s off
f 3/15/27 18/25/28 20/26/29 13/16/30
f 13/16/31 20/26/32 15/18/33 14/17/34
f 21/27/35 16/19/36 2/28/37 19/22/38
s 4
f 18/25/23 9/9/26 15/18/39 20/26/40
s off
f 22/29/41 18/25/42 3/15/43 17/20/44
s 4
f 21/27/45 19/22/24 18/21/23 22/29/46
s off
f 21/27/47 22/29/48 17/20/49 16/19/50
s 5
f 10/30/51 19/31/52 23/32/53 24/33/54
s off
f 25/34/55 12/35/56 11/36/57 26/37/58
f 19/38/59 2/39/60 27/40/61 23/41/62
s 6
f 1/42/63 10/43/64 24/44/65 28/45/66
s 2
f 29/46/67 23/41/68 6/6/6 5/5/5
s 7
f 2/47/69 1/48/70 28/49/71 27/50/72
s off
f 30/51/73 31/52/74 32/53/75 33/54/76
f 26/55/77 30/56/78 33/57/79 25/58/80
f 31/59/81 34/60/82 35/61/83 32/62/84
s 5
f 24/33/54 23/32/53 29/63/85 36/64/86
s 8
f 23/41/87 27/40/88 37/65/89 6/6/90
s 9
f 38/66/91 29/46/92 5/5/93 39/67/94
s 10
f 37/65/95 39/67/96 35/61/97 34/60/98
s 6
f 28/45/66 24/44/65 36/68/99 40/69/100
s off
f 36/64/101 29/46/102 38/70/103 40/69/104
s 10
f 27/40/105 38/66/106 39/67/96 37/65/95
s 7
f 27/50/72 28/49/71 40/71/107 38/70/108
s 8
f 30/72/109 37/65/89 34/60/110 31/59/111
s 9
f 39/67/94 5/5/93 8/8/112 12/14/113 25/74/114 33/75/115 32/62/116 35/61/117
s 8
f 6/6/90 26/73/118 11/13/119 7/7/120
f 6/6/90 37/65/89 30/72/109 26/73/118
